<svg width="72" height="72" viewBox="0 0 72 72" fill="none" xmlns="http://www.w3.org/2000/svg">
<rect width="72" height="72" rx="36" fill="#1F72CE"/>
<path d="M48.0917 35.2225C47.9946 34.9718 47.8489 34.7429 47.663 34.5487L37.4546 24.3404C37.2643 24.15 37.0383 23.999 36.7896 23.896C36.5409 23.793 36.2743 23.7399 36.0051 23.7399C35.4614 23.7399 34.9399 23.9559 34.5555 24.3404C34.3651 24.5307 34.2141 24.7567 34.1111 25.0054C34.0081 25.2542 33.955 25.5207 33.955 25.7899C33.955 26.3336 34.171 26.8551 34.5555 27.2395L41.293 33.9566H25.7967C25.2552 33.9566 24.7359 34.1717 24.3531 34.5546C23.9702 34.9375 23.7551 35.4568 23.7551 35.9983C23.7551 36.5398 23.9702 37.0591 24.3531 37.442C24.7359 37.8248 25.2552 38.04 25.7967 38.04H41.293L34.5555 44.757C34.3641 44.9468 34.2122 45.1726 34.1086 45.4214C34.0049 45.6702 33.9516 45.9371 33.9516 46.2066C33.9516 46.4761 34.0049 46.743 34.1086 46.9918C34.2122 47.2406 34.3641 47.4664 34.5555 47.6562C34.7453 47.8476 34.9711 47.9995 35.2199 48.1031C35.4687 48.2068 35.7355 48.2601 36.0051 48.2601C36.2746 48.2601 36.5414 48.2068 36.7902 48.1031C37.039 47.9995 37.2649 47.8476 37.4546 47.6562L47.663 37.4479C47.8489 37.2537 47.9946 37.0247 48.0917 36.7741C48.2959 36.2771 48.2959 35.7195 48.0917 35.2225Z" fill="white"/>
</svg>
