<svg width="54" height="46" viewBox="0 0 54 46" fill="none" xmlns="http://www.w3.org/2000/svg">
<path d="M38.3318 21.4667L27.9049 10.7333C27.1732 9.96668 26.0756 9.96668 25.3439 10.7333C24.6122 11.5 24.6122 12.65 25.3439 13.4167L34.3074 23L25.3439 32.5833C24.6122 33.35 24.6122 34.5 25.3439 35.2667C25.7097 35.65 26.0756 35.8417 26.6244 35.8417C27.1732 35.8417 27.539 35.65 27.9049 35.2667L38.3318 24.5333C39.0635 23.575 39.0635 22.425 38.3318 21.4667C38.3318 21.6583 38.3318 21.6583 38.3318 21.4667Z" fill="black"/>
<path d="M28.3538 21.4667L17.9269 10.7333C17.1951 9.96668 16.0976 9.96668 15.3659 10.7333C14.6341 11.5 14.6341 12.65 15.3659 13.4167L24.3294 23L15.3659 32.5833C14.6341 33.35 14.6341 34.5 15.3659 35.2667C15.7317 35.65 16.0976 35.8417 16.6464 35.8417C17.1951 35.8417 17.561 35.65 17.9269 35.2667L28.3538 24.5333C29.0855 23.575 29.0855 22.425 28.3538 21.4667C28.3538 21.6583 28.3538 21.6583 28.3538 21.4667Z" fill="black"/>
</svg>
